<?xml version="1.0" standalone="no"?>
<!DOCTYPE svg PUBLIC "-//W3C//DTD SVG 20010904//EN"
 "http://www.w3.org/TR/2001/REC-SVG-20010904/DTD/svg10.dtd">
<svg version="1.0" xmlns="http://www.w3.org/2000/svg"
 width="618.000000pt" height="618.000000pt" viewBox="0 0 618.000000 618.000000"
 preserveAspectRatio="xMidYMid meet">

<g transform="translate(0.000000,618.000000) scale(0.100000,-0.100000)"
fill="#000000" stroke="none">
<path d="M2875 5983 c-160 -19 -311 -48 -370 -73 -11 -4 -58 -23 -105 -41
-256 -98 -492 -258 -705 -478 -463 -479 -754 -1148 -831 -1911 -41 -397 -3
-970 83 -1265 14 -49 37 -128 51 -175 141 -485 412 -955 728 -1261 240 -231
499 -395 769 -484 136 -45 369 -84 500 -85 201 0 487 58 662 135 65 29 236
117 278 143 265 166 564 478 752 787 248 408 412 906 467 1425 59 543 -1 1088
-173 1591 -64 188 -88 245 -177 423 -196 393 -501 753 -810 957 -106 70 -183
119 -188 119 -3 0 -40 16 -83 35 -43 20 -87 40 -98 45 -189 84 -544 138 -750
113z m374 -440 c508 -82 985 -470 1280 -1040 46 -88 47 -113 7 -113 -21 0 -33
16 -81 107 -199 376 -526 702 -851 849 -117 52 -114 51 -179 72 -212 68 -488
81 -702 33 -656 -145 -1195 -758 -1408 -1601 -15 -58 -31 -130 -36 -160 -31
-176 -40 -249 -45 -370 -7 -142 -13 -160 -57 -160 -17 0 -18 6 -12 103 24 378
107 748 240 1062 76 181 225 430 342 575 411 506 942 734 1502 643z m375 -345
c3 -13 6 -34 6 -48 0 -15 5 -31 11 -37 11 -11 8 -74 -6 -154 -4 -22 -2 -46 5
-59 9 -16 9 -25 1 -33 -17 -17 -14 -102 4 -117 12 -10 15 -47 15 -210 0 -163
3 -200 15 -210 8 -7 15 -23 15 -37 0 -13 11 -41 25 -61 21 -31 25 -48 25 -109
0 -39 5 -75 10 -78 6 -3 10 -25 10 -47 0 -23 9 -60 19 -82 11 -23 24 -76 29
-119 8 -57 18 -89 36 -116 16 -22 26 -51 26 -72 0 -76 31 -213 59 -259 5 -8
23 -76 41 -150 18 -74 38 -142 45 -150 8 -8 17 -28 21 -45 4 -16 15 -38 24
-48 26 -27 34 -94 15 -114 -20 -19 -39 -5 -57 43 -22 61 -55 54 -78 -16 -12
-35 -11 -42 3 -58 12 -13 17 -37 17 -76 0 -46 7 -71 41 -137 l40 -82 42 6 c40
5 43 3 68 -33 22 -31 28 -54 34 -126 4 -49 11 -96 15 -104 9 -15 -14 -55 -57
-99 -28 -29 -30 -76 -5 -105 27 -31 47 -95 33 -109 -6 -6 -11 -46 -11 -89 0
-63 -3 -78 -15 -78 -8 0 -15 -4 -15 -10 0 -5 5 -10 10 -10 16 0 12 -113 -5
-136 -8 -10 -15 -37 -15 -59 0 -23 -4 -45 -9 -50 -17 -19 -21 -73 -6 -85 23
-19 18 -38 -9 -33 -13 3 -27 0 -30 -6 -4 -6 -39 -11 -83 -11 -65 0 -80 3 -100
22 -21 19 -27 21 -45 9 -29 -18 -72 4 -64 34 3 11 6 26 6 33 0 8 8 10 24 6 20
-5 25 0 35 26 8 25 15 31 31 27 32 -8 80 43 80 86 0 20 6 37 14 40 8 3 13 21
13 45 0 24 8 52 20 69 27 38 53 119 53 164 0 28 -5 38 -20 42 -18 5 -19 8 -9
31 9 20 9 32 1 51 -7 14 -12 39 -12 55 0 16 -9 52 -20 80 -14 35 -20 74 -20
128 0 42 -5 104 -11 137 -6 33 -10 72 -10 87 1 18 -9 39 -29 59 -19 20 -30 42
-30 60 0 15 -6 32 -14 36 -16 10 -42 66 -51 111 -8 41 7 62 46 62 29 0 29 1
22 43 -11 57 -7 147 6 160 18 18 13 62 -14 115 -14 28 -25 56 -25 63 0 8 -9
25 -18 37 -18 23 -20 23 -55 8 -59 -24 -77 -65 -75 -171 1 -49 7 -103 14 -119
9 -24 9 -38 -2 -68 -8 -23 -9 -40 -3 -43 5 -4 5 -14 -1 -26 -6 -11 -8 -24 -5
-30 4 -5 0 -21 -9 -34 -9 -14 -16 -45 -16 -72 0 -26 -7 -61 -15 -77 -8 -15
-15 -35 -15 -42 0 -8 -4 -14 -10 -14 -5 0 -10 -6 -10 -13 0 -7 -16 -30 -35
-51 -19 -21 -35 -47 -35 -57 0 -33 -42 -101 -69 -110 -16 -6 -33 -25 -46 -52
-11 -23 -32 -58 -47 -77 -15 -19 -28 -44 -28 -55 0 -12 -18 -46 -40 -75 -22
-29 -40 -63 -40 -76 0 -12 -7 -27 -15 -34 -11 -9 -14 -22 -10 -40 4 -19 0 -31
-14 -44 -15 -14 -20 -37 -26 -129 -5 -83 -13 -122 -28 -152 -28 -53 -29 -59
-34 -140 -3 -38 -10 -73 -16 -77 -18 -11 -105 -10 -112 2 -3 6 -19 10 -36 10
-25 0 -29 4 -29 26 0 23 -3 25 -25 20 -23 -6 -25 -4 -20 17 10 38 10 119 1
169 l-8 48 44 0 c41 0 46 3 81 50 23 30 37 61 37 79 0 20 6 30 19 34 16 4 19
11 14 44 -4 30 1 54 21 97 14 31 26 67 26 80 0 13 9 35 20 49 11 14 20 30 20
37 0 7 9 23 20 37 11 14 20 34 20 43 0 10 16 41 35 70 19 29 35 58 35 66 0 7
8 18 18 23 10 5 27 27 38 48 10 21 29 51 42 66 12 16 22 34 22 41 0 7 17 35
38 62 36 47 58 92 69 144 3 14 14 36 24 49 11 13 19 29 19 36 0 6 7 26 15 43
16 32 20 111 11 252 -3 41 -5 81 -6 89 0 15 -6 13 -11 -4 -17 -63 -32 -130
-39 -175 -5 -30 -16 -60 -24 -66 -20 -14 -20 -24 -1 -24 34 0 10 -30 -47 -59
-17 -9 -36 -25 -42 -36 -17 -31 -39 -44 -73 -45 -28 0 -33 -4 -33 -24 0 -23
-5 -25 -47 -28 -41 -3 -50 -7 -61 -30 -7 -16 -17 -28 -23 -28 -11 0 -12 -33
-2 -44 4 -4 8 -15 8 -24 0 -12 7 -16 24 -14 34 3 43 -16 21 -47 -10 -14 -21
-42 -24 -61 -5 -27 -13 -38 -38 -49 -18 -8 -39 -23 -46 -33 -7 -10 -17 -18
-23 -18 -16 0 -10 48 9 62 28 20 35 37 22 53 -20 24 -49 18 -61 -12 -6 -16
-20 -47 -30 -71 -10 -23 -19 -50 -19 -60 0 -10 -9 -35 -20 -57 -14 -27 -20
-59 -20 -100 0 -68 -14 -96 -51 -102 -28 -4 -48 -27 -91 -105 -31 -59 -44 -66
-78 -48 -11 6 -21 6 -24 1 -7 -10 -56 9 -56 22 0 13 -82 177 -92 183 -36 23
-89 -76 -69 -130 6 -14 14 -26 19 -26 4 0 14 -22 21 -49 7 -27 19 -52 27 -55
8 -3 14 -12 14 -20 0 -7 8 -17 17 -20 12 -5 13 -10 5 -18 -9 -9 -18 -9 -37 0
-14 7 -35 12 -45 12 -10 0 -35 16 -55 37 -29 30 -35 43 -35 79 0 54 -15 93
-37 100 -10 3 -40 17 -66 30 -51 25 -87 31 -87 14 0 -6 -10 -15 -23 -21 -13
-6 -29 -26 -36 -44 -14 -40 -87 -120 -118 -129 -39 -12 -68 -16 -85 -10 -19 6
-38 54 -38 94 0 15 -11 44 -25 64 -14 20 -25 44 -25 52 0 8 -5 24 -11 36 -12
23 -13 235 -1 252 8 12 8 71 -1 96 -13 35 -26 180 -22 240 2 36 5 84 5 108 0
31 4 42 15 42 24 0 29 27 11 55 -9 14 -14 31 -10 37 4 6 8 41 9 77 2 52 9 79
34 125 17 33 31 73 31 89 0 20 6 30 20 34 20 5 29 33 10 33 -5 0 -10 17 -10
37 0 40 -19 103 -32 103 -4 0 -8 7 -8 15 0 9 9 15 23 15 39 1 54 36 55 133 0
84 -1 88 -27 102 -14 8 -20 14 -13 15 24 0 9 45 -15 48 -13 2 -23 -1 -23 -7 0
-6 -8 -11 -18 -11 -11 0 -23 -13 -31 -35 -8 -23 -19 -35 -31 -35 -29 0 -50
-11 -50 -26 0 -22 -14 -16 -27 12 -10 22 -8 30 13 62 17 24 24 46 21 62 -5 24
26 105 44 116 14 9 10 41 -6 48 -22 8 -18 26 6 26 25 0 21 21 -7 35 -14 8 -18
19 -16 45 2 19 8 39 13 45 5 5 9 22 9 37 0 15 5 28 10 28 7 0 8 -23 4 -65 -6
-62 -6 -65 15 -65 11 0 21 -4 21 -10 0 -5 7 -10 16 -10 12 0 15 6 10 25 -6 22
-2 28 28 40 19 8 37 23 41 34 8 26 56 38 67 17 9 -16 39 -22 51 -10 3 4 -5 21
-18 39 -31 40 -31 42 0 47 21 4 25 1 25 -19 0 -16 7 -27 19 -30 15 -4 19 -17
23 -75 7 -93 28 -122 92 -126 25 -2 46 -5 46 -6 0 -17 -28 -51 -41 -48 -21 4
-42 -22 -43 -56 -1 -19 -9 -31 -28 -40 -16 -7 -28 -19 -28 -25 0 -17 -37 -39
-45 -27 -3 6 -13 10 -21 10 -11 0 -15 -8 -13 -28 2 -18 -5 -39 -19 -57 -19
-24 -22 -36 -16 -74 4 -25 11 -52 16 -58 6 -7 8 -20 4 -28 -4 -12 6 -15 64
-15 55 0 70 3 70 15 0 8 13 21 28 29 35 18 55 54 50 92 -2 19 -9 30 -23 32
-30 6 -41 20 -22 28 29 11 87 -5 80 -21 -3 -8 0 -15 6 -15 6 0 11 8 11 18 0
19 28 22 63 7 10 -4 36 -5 57 -1 22 3 40 2 40 -2 0 -5 19 -28 43 -51 38 -38
42 -47 42 -90 0 -34 6 -55 19 -70 l19 -21 -46 0 c-40 0 -49 -4 -71 -32 -31
-43 -86 -136 -86 -148 0 -19 29 -10 35 10 11 35 25 21 25 -25 0 -31 4 -45 13
-45 16 0 56 -59 76 -110 8 -19 23 -44 35 -55 44 -41 49 -53 33 -70 -9 -8 -32
-15 -51 -15 -24 0 -36 -5 -36 -13 0 -8 -8 -21 -18 -30 -16 -15 -17 -14 -14 21
4 46 -27 83 -52 63 -11 -9 -20 -10 -36 -1 -11 6 -26 8 -33 4 -8 -5 -8 -3 1 7
7 8 20 14 30 14 13 0 16 7 14 34 -2 19 -11 45 -20 59 -10 15 -15 41 -13 68 2
35 -1 44 -14 44 -8 0 -18 -8 -22 -17 -13 -37 -46 -53 -110 -53 -78 0 -83 -7
-88 -141 -4 -90 -3 -100 13 -97 9 1 30 -8 45 -22 21 -19 26 -30 22 -51 -4 -17
-1 -30 10 -39 8 -7 15 -23 15 -35 0 -40 65 -192 90 -214 24 -20 24 -21 6 -36
-15 -12 -17 -17 -7 -29 7 -8 19 -12 27 -9 9 3 14 -2 14 -14 0 -11 14 -29 30
-42 29 -21 30 -23 15 -44 -19 -27 -19 -37 1 -37 9 0 18 9 21 20 3 11 11 20 18
20 30 0 72 32 87 67 31 73 32 100 4 146 -15 28 -27 65 -30 102 -6 68 6 63 33
-16 22 -60 37 -69 85 -46 17 9 39 18 48 21 14 4 16 15 12 73 -9 120 -9 245 -1
250 12 8 8 43 -6 43 -30 0 -76 32 -91 65 -9 19 -21 37 -26 40 -15 9 -12 62 5
79 8 8 26 23 39 34 21 16 25 29 27 78 3 72 8 83 23 52 16 -32 67 -32 81 0 5
12 13 22 16 22 4 0 17 -24 29 -52 30 -70 41 -243 16 -261 -21 -16 -5 -87 32
-142 15 -22 35 -56 45 -76 10 -19 29 -48 43 -64 26 -30 30 -50 14 -60 -5 -3
-10 -15 -10 -26 0 -13 7 -19 23 -19 12 0 30 -9 40 -20 13 -16 29 -20 75 -20
l59 0 13 43 c7 23 17 52 23 65 12 25 -7 169 -24 186 -5 6 -9 18 -9 28 0 10 -5
18 -11 18 -6 0 -8 7 -5 16 3 8 -1 28 -9 44 -17 33 -20 122 -5 150 5 10 12 44
15 76 7 70 25 134 37 134 5 0 8 -75 7 -167 -2 -160 7 -235 33 -285 12 -24 23
-23 48 4 18 20 19 30 14 100 -4 46 -3 94 3 116 26 92 45 170 50 204 3 21 11
42 19 49 8 6 14 16 14 23 0 6 12 34 26 63 25 49 28 51 60 46 26 -4 35 -2 40
11 4 10 2 22 -5 29 -15 15 -14 27 4 27 29 0 36 39 34 186 -2 127 -4 146 -19
154 -17 9 -17 15 -5 66 11 47 11 62 -1 90 -8 18 -14 67 -14 108 0 41 -5 87
-11 103 -5 15 -11 49 -11 75 -1 27 -5 48 -10 48 -4 0 -8 8 -8 18 0 10 -15 49
-34 87 -26 51 -33 76 -29 98 5 26 4 29 -11 24 -12 -5 -28 5 -54 30 -20 21 -36
41 -35 44 1 4 -4 13 -13 20 -13 10 -16 9 -21 -9 -6 -25 -20 -27 -47 -7 -27 21
-35 19 -46 -10 -9 -23 -14 -25 -80 -25 -68 0 -72 -1 -88 -30 -9 -16 -20 -30
-25 -30 -4 0 -5 -11 -1 -25 5 -21 3 -25 -15 -25 -12 0 -23 6 -25 13 -2 6 -9
31 -15 55 -10 35 -16 42 -36 42 -15 0 -25 6 -25 14 0 20 -19 31 -32 18 -8 -8
-8 -15 1 -26 16 -19 -4 -32 -25 -15 -12 10 -16 9 -21 -9 -6 -23 -18 -28 -28
-12 -10 16 -65 12 -71 -5 -4 -8 1 -33 10 -56 18 -44 13 -67 -10 -48 -19 15
-30 4 -15 -15 10 -11 9 -16 -3 -23 -8 -4 -24 -28 -35 -53 -12 -25 -32 -65 -46
-90 -15 -28 -25 -62 -25 -88 0 -23 -7 -59 -15 -78 -8 -20 -19 -63 -24 -96 -7
-38 -19 -69 -36 -89 -14 -17 -25 -34 -25 -37 0 -4 -27 -7 -60 -7 -67 -1 -76 8
-62 59 9 33 -7 129 -26 164 -12 20 -11 26 2 41 19 21 21 51 4 51 -6 0 0 13 15
28 22 23 27 37 27 79 0 46 -3 54 -29 72 -16 12 -35 21 -41 21 -15 0 -7 65 11
86 9 12 15 12 27 2 13 -11 14 -10 9 13 -4 15 -1 33 8 46 17 24 16 103 -2 110
-28 11 -11 23 31 23 27 0 52 7 67 19 26 20 77 30 184 35 54 2 81 9 119 30 l49
27 28 -20 c31 -23 54 -27 64 -11 3 6 21 10 40 10 19 0 37 5 40 10 10 16 121
12 176 -6 l49 -16 21 26 c15 19 26 25 43 20 17 -4 29 2 49 25 14 17 34 31 44
31 10 0 26 9 36 20 9 11 23 20 31 20 8 0 32 16 53 35 47 43 107 50 117 13z
m-1549 -198 c7 0 23 -15 34 -34 12 -18 30 -36 41 -39 12 -3 20 -14 20 -25 0
-27 17 -37 35 -22 8 7 20 10 26 8 6 -2 -5 -16 -24 -31 -21 -16 -38 -23 -42
-17 -10 15 -35 12 -35 -5 0 -8 7 -15 15 -15 22 0 19 -10 -19 -46 -24 -24 -36
-30 -45 -21 -6 6 -14 7 -18 3 -5 -4 0 -13 10 -20 16 -12 16 -16 2 -49 -8 -20
-19 -38 -24 -41 -5 -4 -17 -30 -27 -59 -9 -28 -23 -61 -30 -72 -8 -11 -14 -29
-14 -40 0 -11 -9 -35 -20 -53 -11 -18 -20 -42 -20 -53 0 -12 -5 -19 -12 -17
-17 6 -30 84 -22 128 4 19 7 82 8 140 1 63 7 114 14 128 9 15 11 43 7 85 -6
66 8 117 31 117 9 0 14 12 14 35 0 28 4 35 19 35 11 0 23 5 26 11 5 6 13 3 22
-10 8 -12 20 -21 28 -21z m300 -140 c-3 -5 -17 -10 -30 -10 -13 0 -27 5 -30
10 -4 6 8 10 30 10 22 0 34 -4 30 -10z m451 -207 c-10 -10 -19 5 -10 18 6 11
8 11 12 0 2 -7 1 -15 -2 -18z m18 -49 c3 -9 6 -27 6 -40 0 -34 -36 -33 -44 2
-10 39 24 74 38 38z m57 -274 c32 -33 46 -40 77 -40 32 0 41 -5 50 -25 6 -14
18 -25 26 -25 8 0 32 -21 54 -47 36 -43 42 -47 63 -36 13 6 48 16 76 22 29 6
62 20 73 31 25 25 40 26 40 1 0 -11 5 -23 10 -26 6 -3 10 -13 10 -22 0 -27
-40 -103 -60 -113 -10 -6 -22 -20 -26 -32 -4 -13 -20 -40 -36 -61 l-30 -37
-26 18 c-25 18 -72 35 -98 37 -6 0 -19 7 -29 15 -15 13 -19 12 -31 -5 -8 -10
-14 -24 -14 -31 0 -19 -62 -27 -73 -9 -12 22 -33 18 -55 -10 -11 -14 -29 -25
-41 -25 -13 0 -21 -6 -21 -17 0 -32 -34 -93 -51 -93 -10 0 -39 27 -64 60 -25
33 -50 60 -54 60 -4 0 -13 16 -20 35 -10 30 -10 38 3 57 9 12 16 42 16 66 0
24 6 53 12 65 18 33 37 107 38 149 0 53 30 78 93 78 44 0 53 -4 88 -40z m1961
15 c6 -14 9 -27 6 -30 -4 -5 -143 -57 -198 -75 -14 -4 -63 -22 -110 -39 -47
-18 -116 -43 -155 -56 -38 -13 -113 -40 -165 -59 -97 -37 -130 -43 -130 -27 0
5 -3 16 -6 24 -7 20 47 44 251 112 22 7 78 27 125 45 47 17 103 38 125 46 22
7 83 29 135 48 52 18 98 34 103 35 4 0 13 -10 19 -24z m-2372 -486 c0 -5 -4
-9 -10 -9 -5 0 -10 7 -10 16 0 8 5 12 10 9 6 -3 10 -10 10 -16z m655 -86 c-10
-89 -19 -123 -28 -114 -6 6 -26 11 -44 11 -25 0 -33 4 -33 18 1 22 55 82 75
82 8 0 15 7 15 16 0 8 4 13 8 10 5 -3 8 -13 7 -23z m-928 0 c-9 -9 -19 -14
-23 -11 -10 10 6 28 24 28 15 0 15 -1 -1 -17z m723 -93 c0 -5 -2 -10 -4 -10
-3 0 -8 5 -11 10 -3 6 -1 10 4 10 6 0 11 -4 11 -10z m-1082 -65 c2 -32 -3 -78
-9 -101 l-13 -42 -13 25 c-26 50 -9 190 21 180 6 -2 12 -30 14 -62z m1262
-169 c-11 -11 -14 6 -11 66 2 20 -3 47 -9 59 -11 19 -10 25 6 36 18 13 19 10
22 -68 2 -48 -2 -87 -8 -93z m1983 -196 c8 -29 -13 -45 -95 -73 -68 -23 -241
-85 -403 -144 -272 -100 -280 -101 -273 -52 3 23 23 32 268 118 30 11 93 34
140 51 47 17 123 44 170 61 47 17 101 36 120 44 51 19 67 18 73 -5z m-3461
-70 c3 -23 -8 -28 -197 -97 -252 -92 -485 -173 -497 -173 -5 0 -8 14 -6 32 3
28 9 33 53 48 28 9 88 31 135 48 47 16 130 46 185 66 55 20 147 53 205 75 58
21 108 36 112 32 4 -4 9 -17 10 -31z m3211 -267 c-27 -430 -129 -824 -303
-1173 -163 -327 -378 -594 -631 -783 -116 -87 -168 -118 -289 -176 -199 -94
-340 -129 -565 -138 -289 -11 -524 46 -777 191 -246 140 -487 370 -659 631
-72 109 -164 273 -157 280 2 3 18 7 34 10 28 5 31 2 73 -75 313 -571 822 -929
1361 -956 274 -14 524 47 763 185 134 77 140 81 212 139 324 260 569 624 724
1078 78 230 132 497 147 724 6 108 16 130 55 130 14 0 16 -9 12 -67z m-1521
-215 c-7 -7 -12 -8 -12 -2 0 6 3 14 7 17 3 4 9 5 12 2 2 -3 -1 -11 -7 -17z
m-1468 -610 c10 -40 26 -29 -139 -88 -44 -16 -118 -43 -165 -60 -47 -18 -112
-41 -145 -51 -33 -11 -69 -24 -80 -29 -11 -4 -59 -22 -108 -39 l-88 -31 -11
25 c-7 16 -8 29 -2 34 5 5 70 30 144 56 228 80 290 102 430 154 74 27 140 50
146 50 7 1 14 -9 18 -21z m376 -205 c11 -8 20 -21 20 -30 0 -8 8 -37 17 -64
17 -47 17 -49 -2 -63 -19 -14 -19 -15 -2 -21 12 -5 17 -18 17 -44 1 -84 104
-214 157 -197 34 11 44 41 31 91 -11 42 -11 46 11 66 13 12 42 27 64 34 44 13
65 40 91 116 9 26 10 41 3 48 -7 7 -7 19 2 38 12 27 13 27 27 8 16 -21 18 -57
5 -83 -15 -30 -40 -125 -46 -177 -4 -37 -1 -58 12 -82 16 -31 16 -32 -11 -67
l-27 -36 -203 0 c-111 0 -206 4 -211 9 -6 5 -23 11 -40 13 l-30 3 -1 70 c0 39
-4 78 -8 87 -19 41 17 243 50 280 12 13 24 32 29 43 7 19 7 19 16 -4 5 -14 19
-31 29 -38z m1500 7 c0 -5 -8 -10 -17 -10 -15 0 -16 2 -3 10 19 12 20 12 20 0z
m-173 -190 c3 -11 9 -20 14 -20 15 0 10 -57 -6 -70 -8 -7 -15 -21 -15 -32 0
-10 7 -21 15 -24 25 -10 19 -93 -9 -128 -21 -25 -28 -28 -67 -23 -125 17 -138
22 -119 57 7 13 21 20 39 20 40 0 65 40 57 89 -5 31 0 47 30 94 38 60 53 69
61 37z"/>
<path d="M3558 5095 c-8 -19 -8 -31 0 -51 17 -36 32 -21 32 32 0 49 -14 57
-32 19z"/>
<path d="M2604 4766 c-7 -19 3 -36 22 -36 10 0 14 8 12 22 -4 26 -26 36 -34
14z"/>
<path d="M2652 4709 c2 -6 8 -10 13 -10 5 0 11 4 13 10 2 6 -4 11 -13 11 -9 0
-15 -5 -13 -11z"/>
<path d="M2405 4661 c-3 -5 -1 -12 5 -16 5 -3 10 1 10 9 0 18 -6 21 -15 7z"/>
<path d="M2216 3951 c-4 -5 -2 -12 3 -15 5 -4 12 -2 15 3 4 5 2 12 -3 15 -5 4
-12 2 -15 -3z"/>
<path d="M2405 3750 c-3 -5 -1 -10 4 -10 6 0 11 5 11 10 0 6 -2 10 -4 10 -3 0
-8 -4 -11 -10z"/>
<path d="M2280 3420 c0 -5 9 -10 21 -10 11 0 17 5 14 10 -3 6 -13 10 -21 10
-8 0 -14 -4 -14 -10z"/>
<path d="M2510 3260 c0 -5 -7 -10 -15 -10 -8 0 -15 -9 -15 -20 0 -11 6 -20 13
-20 19 0 50 37 42 49 -8 14 -25 14 -25 1z"/>
<path d="M3280 2820 c0 -5 7 -10 15 -10 8 0 15 5 15 10 0 6 -7 10 -15 10 -8 0
-15 -4 -15 -10z"/>
<path d="M2416 2531 c-9 -14 4 -41 20 -41 8 0 14 10 14 25 0 25 -23 35 -34 16z"/>
<path d="M2493 2433 c-7 -2 -13 -16 -13 -29 0 -13 -4 -24 -10 -24 -5 0 -10 -7
-10 -16 0 -14 3 -14 15 -4 8 7 15 8 15 3 0 -6 9 -22 21 -37 16 -20 24 -24 34
-16 17 14 8 88 -13 113 -16 18 -19 19 -39 10z"/>
<path d="M2620 2346 c0 -22 19 -30 35 -16 22 18 18 30 -10 30 -15 0 -25 -6
-25 -14z"/>
<path d="M3082 1709 c2 -15 10 -24 21 -24 26 0 25 15 -1 33 -23 15 -24 15 -20
-9z"/>
<path d="M2835 4039 c-3 -4 1 -11 8 -16 7 -4 19 -23 27 -42 12 -31 14 -32 27
-15 24 33 16 58 -22 70 -20 6 -38 8 -40 3z"/>
<path d="M2810 3950 c0 -5 5 -10 10 -10 6 0 10 5 10 10 0 6 -4 10 -10 10 -5 0
-10 -4 -10 -10z"/>
</g>
</svg>
